<svg width="163" height="96" viewBox="0 0 163 96" fill="none" xmlns="http://www.w3.org/2000/svg">
<path d="M30.28 47.52C33 47.52 35.1867 48.36 36.84 50.04C38.52 51.6933 39.36 54.0133 39.36 57V70H33.76V57.76C33.76 56.0267 33.32 54.7067 32.44 53.8C31.56 52.8667 30.36 52.4 28.84 52.4C27.32 52.4 26.1067 52.8667 25.2 53.8C24.32 54.7067 23.88 56.0267 23.88 57.76V70H18.28V57.76C18.28 56.0267 17.84 54.7067 16.96 53.8C16.08 52.8667 14.88 52.4 13.36 52.4C11.8133 52.4 10.5867 52.8667 9.68 53.8C8.8 54.7067 8.36 56.0267 8.36 57.76V70H2.76V47.84H8.36V50.52C9.08 49.5867 10 48.8533 11.12 48.32C12.2667 47.7867 13.52 47.52 14.88 47.52C16.6133 47.52 18.16 47.8933 19.52 48.64C20.88 49.36 21.9333 50.4 22.68 51.76C23.4 50.48 24.44 49.4533 25.8 48.68C27.1867 47.9067 28.68 47.52 30.28 47.52ZM65.8741 47.84L52.1541 80.48H46.1941L50.9941 69.44L42.1141 47.84H48.3941L54.1141 63.32L59.9141 47.84H65.8741Z" fill="white"/>
<path d="M119.253 25.328V70H110.293V40.944L98.3248 70H91.5408L79.5088 40.944V70H70.5488V25.328H80.7248L94.9328 58.544L109.141 25.328H119.253ZM142.895 61.744L151.855 34.544H161.391L148.271 70H137.391L124.335 34.544H133.935L142.895 61.744Z" fill="#9F8AC0" fill-opacity="0.98"/>
<line x1="62" y1="80.5" x2="94" y2="80.5" stroke="#8F8686"/>
</svg>
