<svg width="19" height="23" viewBox="0 0 19 23" fill="none" xmlns="http://www.w3.org/2000/svg">
<path d="M17.9933 19.885L14.441 15.4067C14.2806 15.2046 14.0633 15.0923 13.8352 15.0923H13.2545C14.2379 13.5067 14.8222 11.5124 14.8222 9.34284C14.8222 4.18182 11.505 0 7.4111 0C3.31718 0 0 4.18182 0 9.34284C0 14.5039 3.31718 18.6857 7.4111 18.6857C9.13205 18.6857 10.714 17.949 11.9718 16.7093V17.4415C11.9718 17.7289 12.0609 18.0029 12.2212 18.2051L15.7735 22.6833C16.1085 23.1056 16.65 23.1056 16.9814 22.6833L17.9897 21.4122C18.3247 20.9899 18.3247 20.3072 17.9933 19.885ZM7.4111 15.0923C4.89204 15.0923 2.85042 12.523 2.85042 9.34284C2.85042 6.16717 4.88848 3.5934 7.4111 3.5934C9.93016 3.5934 11.9718 6.16268 11.9718 9.34284C11.9718 12.5185 9.93373 15.0923 7.4111 15.0923Z" fill="#9F9F9F"/>
</svg>
